{
  "accessors": [
    {
      "bufferView": 1,
      "componentType": 5126,
      "count": 60211,
      "max": [
        64.5250015258789,
        -13.402999877929688,
        70.0
      ],
      "min": [
        -42.48529815673828,
        -148.96290588378906,
        -79.9999008178711
      ],
      "type": "VEC3"
    },
    {
      "bufferView": 1,
      "byteOffset": 722532,
      "componentType": 5126,
      "count": 60211,
      "max": [
        1.0,
        1.0,
        1.0
      ],
      "min": [
        -1.0,
        -1.0,
        -1.0
      ],
      "type": "VEC3"
    },
    {
      "bufferView": 0,
      "componentType": 5125,
      "count": 234672,
      "type": "SCALAR"
    },
    {
      "bufferView": 1,
      "byteOffset": 1445064,
      "componentType": 5126,
      "count": 65532,
      "max": [
        49.117801666259766,
        -33.09170150756836,
        56.441001892089844
      ],
      "min": [
        -85.4010009765625,
        -168.81100463867188,
        -60.48939895629883
      ],
      "type": "VEC3"
    },
    {
      "bufferView": 1,
      "byteOffset": 2231448,
      "componentType": 5126,
      "count": 65532,
      "max": [
        1.0,
        1.0,
        1.0
      ],
      "min": [
        -1.0,
        -1.0,
        -1.0
      ],
      "type": "VEC3"
    },
    {
      "bufferView": 0,
      "byteOffset": 938688,
      "componentType": 5125,
      "count": 209232,
      "type": "SCALAR"
    },
    {
      "bufferView": 1,
      "byteOffset": 3017832,
      "componentType": 5126,
      "count": 25956,
      "max": [
        49.117801666259766,
        -33.09170150756836,
        56.441001892089844
      ],
      "min": [
        -57.70000076293945,
        -139.43699645996094,
        -60.48939895629883
      ],
      "type": "VEC3"
    },
    {
      "bufferView": 1,
      "byteOffset": 3329304,
      "componentType": 5126,
      "count": 25956,
      "max": [
        1.0,
        1.0,
        1.0
      ],
      "min": [
        -1.0,
        -1.0,
        -1.0
      ],
      "type": "VEC3"
    },
    {
      "bufferView": 0,
      "byteOffset": 1775616,
      "componentType": 5125,
      "count": 72786,
      "type": "SCALAR"
    },
    {
      "bufferView": 1,
      "byteOffset": 3640776,
      "componentType": 5126,
      "count": 44563,
      "max": [
        47.12900161743164,
        -36.334999084472656,
        33.90700149536133
      ],
      "min": [
        -46.172698974609375,
        -130.0572052001953,
        -38.4119987487793
      ],
      "type": "VEC3"
    },
    {
      "bufferView": 1,
      "byteOffset": 4175532,
      "componentType": 5126,
      "count": 44563,
      "max": [
        0.999750018119812,
        0.9997494220733643,
        0.9999867081642151
      ],
      "min": [
        -0.999791145324707,
        -0.9997912049293518,
        -1.0
      ],
      "type": "VEC3"
    },
    {
      "bufferView": 0,
      "byteOffset": 2066760,
      "componentType": 5125,
      "count": 173901,
      "type": "SCALAR"
    },
    {
      "bufferView": 1,
      "byteOffset": 4710288,
      "componentType": 5126,
      "count": 2596,
      "max": [
        13.896300315856934,
        -69.9917984008789,
        34.180301666259766
      ],
      "min": [
        -64.00700378417969,
        -145.1790008544922,
        -38.691001892089844
      ],
      "type": "VEC3"
    },
    {
      "bufferView": 1,
      "byteOffset": 4741440,
      "componentType": 5126,
      "count": 2596,
      "max": [
        0.9977516531944275,
        0.9971476793289185,
        1.0
      ],
      "min": [
        -1.0,
        -0.9993965029716492,
        -1.0
      ],
      "type": "VEC3"
    },
    {
      "bufferView": 0,
      "byteOffset": 2762364,
      "componentType": 5125,
      "count": 8448,
      "type": "SCALAR"
    },
    {
      "bufferView": 1,
      "byteOffset": 4772592,
      "componentType": 5126,
      "count": 13339,
      "max": [
        46.266998291015625,
        -37.196800231933594,
        33.400299072265625
      ],
      "min": [
        -68.75700378417969,
        -152.13180541992188,
        -37.90549850463867
      ],
      "type": "VEC3"
    },
    {
      "bufferView": 1,
      "byteOffset": 4932660,
      "componentType": 5126,
      "count": 13339,
      "max": [
        0.9931321740150452,
        1.0,
        1.0
      ],
      "min": [
        -0.878351628780365,
        -0.9651167392730713,
        -1.0
      ],
      "type": "VEC3"
    },
    {
      "bufferView": 0,
      "byteOffset": 2796156,
      "componentType": 5125,
      "count": 41022,
      "type": "SCALAR"
    },
    {
      "bufferView": 1,
      "byteOffset": 5092728,
      "componentType": 5126,
      "count": 65532,
      "max": [
        83.0,
        -0.0,
        33.94879913330078
      ],
      "min": [
        -78.07099914550781,
        -161.4810028076172,
        -38.453800201416016
      ],
      "type": "VEC3"
    },
    {
      "bufferView": 1,
      "byteOffset": 5879112,
      "componentType": 5126,
      "count": 65532,
      "max": [
        0.9999871253967285,
        1.0,
        1.0
      ],
      "min": [
        -0.9999216794967651,
        -1.0,
        -1.0
      ],
      "type": "VEC3"
    },
    {
      "bufferView": 0,
      "byteOffset": 2960244,
      "componentType": 5125,
      "count": 237483,
      "type": "SCALAR"
    },
    {
      "bufferView": 1,
      "byteOffset": 6665496,
      "componentType": 5126,
      "count": 61097,
      "max": [
        82.98600006103516,
        -0.0010000000474974513,
        33.9010009765625
      ],
      "min": [
        -77.625,
        -159.53579711914063,
        -38.453800201416016
      ],
      "type": "VEC3"
    },
    {
      "bufferView": 1,
      "byteOffset": 7398660,
      "componentType": 5126,
      "count": 61097,
      "max": [
        0.999932050704956,
        0.9999638795852661,
        1.0
      ],
      "min": [
        -1.0,
        -1.0,
        -1.0
      ],
      "type": "VEC3"
    },
    {
      "bufferView": 0,
      "byteOffset": 3910176,
      "componentType": 5125,
      "count": 210669,
      "type": "SCALAR"
    },
    {
      "bufferView": 1,
      "byteOffset": 8131824,
      "componentType": 5126,
      "count": 823,
      "max": [
        -22.351999282836914,
        -153.21200561523438,
        3.8540000915527344
      ],
      "min": [
        -30.08300018310547,
        -160.7050018310547,
        -6.309000015258789
      ],
      "type": "VEC3"
    },
    {
      "bufferView": 1,
      "byteOffset": 8141700,
      "componentType": 5126,
      "count": 823,
      "max": [
        0.9596355557441711,
        0.7147698402404785,
        1.0
      ],
      "min": [
        -0.7500128149986267,
        -0.9353982210159302,
        -1.0
      ],
      "type": "VEC3"
    },
    {
      "bufferView": 0,
      "byteOffset": 4752852,
      "componentType": 5125,
      "count": 2250,
      "type": "SCALAR"
    },
    {
      "bufferView": 1,
      "byteOffset": 8151576,
      "componentType": 5126,
      "count": 1616,
      "max": [
        13.597299575805664,
        -70.29090118408203,
        33.757999420166016
      ],
      "min": [
        -37.43560028076172,
        -121.31639862060547,
        -38.26810073852539
      ],
      "type": "VEC3"
    },
    {
      "bufferView": 1,
      "byteOffset": 8170968,
      "componentType": 5126,
      "count": 1616,
      "max": [
        0.9977872967720032,
        0.9798726439476013,
        0.9993273019790649
      ],
      "min": [
        -1.0,
        -0.993425726890564,
        -0.9941193461418152
      ],
      "type": "VEC3"
    },
    {
      "bufferView": 0,
      "byteOffset": 4761852,
      "componentType": 5125,
      "count": 5850,
      "type": "SCALAR"
    },
    {
      "bufferView": 1,
      "byteOffset": 8190360,
      "componentType": 5126,
      "count": 32096,
      "max": [
        63.58300018310547,
        -18.466999053955078,
        55.208499908447266
      ],
      "min": [
        -64.11599731445313,
        -161.34500122070313,
        -67.58300018310547
      ],
      "type": "VEC3"
    },
    {
      "bufferView": 1,
      "byteOffset": 8575512,
      "componentType": 5126,
      "count": 32096,
      "max": [
        0.9987815022468567,
        1.0,
        1.0
      ],
      "min": [
        -0.9994894862174988,
        -0.9999696016311646,
        -1.0
      ],
      "type": "VEC3"
    },
    {
      "bufferView": 0,
      "byteOffset": 4785252,
      "componentType": 5125,
      "count": 105396,
      "type": "SCALAR"
    }
  ],
  "asset": {
    "extras": {
      "author": "CMFDesign (https://sketchfab.com/CMFDesign)",
      "license": "CC-BY-4.0 (http://creativecommons.org/licenses/by/4.0/)",
      "source": "https://sketchfab.com/3d-models/project-icarus-concept-ship-62920d6c2df24832a504b250289d0b8c",
      "title": "Project Icarus Concept Ship"
    },
    "generator": "Sketchfab-12.68.0",
    "version": "2.0"
  },
  "bufferViews": [
    {
      "buffer": 0,
      "byteLength": 5206836,
      "name": "floatBufferViews",
      "target": 34963
    },
    {
      "buffer": 0,
      "byteLength": 8960664,
      "byteOffset": 5206836,
      "byteStride": 12,
      "name": "floatBufferViews",
      "target": 34962
    }
  ],
  "buffers": [
    {
      "byteLength": 14167500,
      "uri": "scene.bin"
    }
  ],
  "extensionsUsed": [
    "KHR_materials_clearcoat"
  ],
  "materials": [
    {
      "doubleSided": true,
      "name": "color_10988977",
      "pbrMetallicRoughness": {
        "baseColorFactor": [
          0.654902,
          0.678431,
          0.694118,
          1.0
        ],
        "metallicFactor": 0.0
      }
    },
    {
      "doubleSided": true,
      "name": "color_12568524",
      "pbrMetallicRoughness": {
        "baseColorFactor": [
          0.74902,
          0.780392,
          0.8,
          1.0
        ],
        "metallicFactor": 0.0
      }
    },
    {
      "doubleSided": true,
      "extensions": {
        "KHR_materials_clearcoat": {
          "clearcoatFactor": 1.0,
          "clearcoatRoughnessFactor": 0.04
        }
      },
      "name": "color_14541540",
      "pbrMetallicRoughness": {
        "baseColorFactor": [
          0.3141712361253668,
          0.3255467161482332,
          0.3301210923691803,
          1.0
        ],
        "metallicFactor": 0.28692903415762677,
        "roughnessFactor": 0.0
      }
    },
    {
      "doubleSided": true,
      "name": "color_14789940",
      "pbrMetallicRoughness": {
        "baseColorFactor": [
          0.882353,
          0.678431,
          0.203922,
          1.0
        ],
        "metallicFactor": 0.0
      }
    },
    {
      "doubleSided": true,
      "name": "color_15277357",
      "pbrMetallicRoughness": {
        "baseColorFactor": [
          0.913725,
          0.113725,
          0.176471,
          1.0
        ],
        "metallicFactor": 0.0
      }
    },
    {
      "doubleSided": true,
      "name": "color_16448250",
      "pbrMetallicRoughness": {
        "baseColorFactor": [
          0.980392,
          0.980392,
          0.980392,
          1.0
        ],
        "metallicFactor": 0.0
      }
    },
    {
      "doubleSided": true,
      "name": "color_2829873",
      "pbrMetallicRoughness": {
        "baseColorFactor": [
          0.168627,
          0.180392,
          0.192157,
          1.0
        ],
        "metallicFactor": 0.0
      }
    },
    {
      "doubleSided": true,
      "name": "color_3888547",
      "pbrMetallicRoughness": {
        "baseColorFactor": [
          0.231373,
          0.333333,
          0.639216,
          1.0
        ],
        "metallicFactor": 0.0
      }
    },
    {
      "doubleSided": true,
      "name": "color_6383466",
      "pbrMetallicRoughness": {
        "baseColorFactor": [
          0.380392,
          0.403922,
          0.415686,
          1.0
        ],
        "metallicFactor": 0.0
      }
    }
  ],
  "meshes": [
    {
      "name": "Object_0",
      "primitives": [
        {
          "attributes": {
            "NORMAL": 1,
            "POSITION": 0
          },
          "indices": 2,
          "material": 0,
          "mode": 4
        }
      ]
    },
    {
      "name": "Object_1",
      "primitives": [
        {
          "attributes": {
            "NORMAL": 4,
            "POSITION": 3
          },
          "indices": 5,
          "material": 1,
          "mode": 4
        }
      ]
    },
    {
      "name": "Object_2",
      "primitives": [
        {
          "attributes": {
            "NORMAL": 7,
            "POSITION": 6
          },
          "indices": 8,
          "material": 1,
          "mode": 4
        }
      ]
    },
    {
      "name": "Object_3",
      "primitives": [
        {
          "attributes": {
            "NORMAL": 10,
            "POSITION": 9
          },
          "indices": 11,
          "material": 2,
          "mode": 4
        }
      ]
    },
    {
      "name": "Object_4",
      "primitives": [
        {
          "attributes": {
            "NORMAL": 13,
            "POSITION": 12
          },
          "indices": 14,
          "material": 3,
          "mode": 4
        }
      ]
    },
    {
      "name": "Object_5",
      "primitives": [
        {
          "attributes": {
            "NORMAL": 16,
            "POSITION": 15
          },
          "indices": 17,
          "material": 4,
          "mode": 4
        }
      ]
    },
    {
      "name": "Object_6",
      "primitives": [
        {
          "attributes": {
            "NORMAL": 19,
            "POSITION": 18
          },
          "indices": 20,
          "material": 5,
          "mode": 4
        }
      ]
    },
    {
      "name": "Object_7",
      "primitives": [
        {
          "attributes": {
            "NORMAL": 22,
            "POSITION": 21
          },
          "indices": 23,
          "material": 5,
          "mode": 4
        }
      ]
    },
    {
      "name": "Object_8",
      "primitives": [
        {
          "attributes": {
            "NORMAL": 25,
            "POSITION": 24
          },
          "indices": 26,
          "material": 6,
          "mode": 4
        }
      ]
    },
    {
      "name": "Object_9",
      "primitives": [
        {
          "attributes": {
            "NORMAL": 28,
            "POSITION": 27
          },
          "indices": 29,
          "material": 7,
          "mode": 4
        }
      ]
    },
    {
      "name": "Object_10",
      "primitives": [
        {
          "attributes": {
            "NORMAL": 31,
            "POSITION": 30
          },
          "indices": 32,
          "material": 8,
          "mode": 4
        }
      ]
    }
  ],
  "nodes": [
    {
      "children": [
        1
      ],
      "matrix": [
        -2.220446049250313e-16,
        4.440892098500626e-16,
        -1.0,
        0.0,
        -0.0005660175811499357,
        -0.9999998211860657,
        -4.440891701453932e-16,
        0.0,
        -0.9999998211860657,
        0.0005660175811499357,
        2.2217028607521837e-16,
        0.0,
        -6.248370170593262,
        -89.40271759033205,
        83.20497131347655,
        1.0
      ],
      "name": "Sketchfab_model"
    },
    {
      "children": [
        2,
        3,
        4,
        5,
        6,
        7,
        8,
        9,
        10,
        11,
        12
      ],
      "name": "tinker.obj.cleaner.materialmerger.gles"
    },
    {
      "mesh": 0,
      "name": "Object_2"
    },
    {
      "mesh": 1,
      "name": "Object_3"
    },
    {
      "mesh": 2,
      "name": "Object_4"
    },
    {
      "mesh": 3,
      "name": "Object_5"
    },
    {
      "mesh": 4,
      "name": "Object_6"
    },
    {
      "mesh": 5,
      "name": "Object_7"
    },
    {
      "mesh": 6,
      "name": "Object_8"
    },
    {
      "mesh": 7,
      "name": "Object_9"
    },
    {
      "mesh": 8,
      "name": "Object_10"
    },
    {
      "mesh": 9,
      "name": "Object_11"
    },
    {
      "mesh": 10,
      "name": "Object_12"
    }
  ],
  "scene": 0,
  "scenes": [
    {
      "name": "Sketchfab_Scene",
      "nodes": [
        0
      ]
    }
  ]
}
